<?xml version="1.0" encoding="utf-8"?>
<!-- Generator: Adobe Illustrator 16.0.5, SVG Export Plug-In . SVG Version: 6.00 Build 0)  -->
<!DOCTYPE svg PUBLIC "-//W3C//DTD SVG 1.1//EN" "http://www.w3.org/Graphics/SVG/1.1/DTD/svg11.dtd">
<svg version="1.1" id="Layer_2" xmlns="http://www.w3.org/2000/svg" xmlns:xlink="http://www.w3.org/1999/xlink" x="0px" y="0px"
	 width="40.709px" height="51.655px" viewBox="0 0 40.709 51.655" enable-background="new 0 0 40.709 51.655" xml:space="preserve">
<g>
	<path fill="#AF1F2E" d="M20.12,16.719h-2.518h-1.455c0-6.364,0-14.954,0-14.954h-3.615L1.385,16.719c0,0-0.561,3.574,3.462,3.574
		c1.731,0,4.646,0,7.685,0v6.042c0,0,3.615-0.101,3.615-3.424c0-0.537,0-1.457,0-2.618C19.354,20.293,20.12,16.719,20.12,16.719z
		 M5.823,16.719l6.709-9.268v9.268H5.823z"/>
	<path fill="#AF1F2E" d="M30.699,11.269c-0.673,0-1.328,0.073-1.955,0.208l4.906-9.711c-4.292,0-5.489,2.857-5.489,2.857
		s-5.856,10.365-5.856,14.18c0,4.161,3.758,7.533,8.394,7.533c4.637,0,8.394-3.372,8.394-7.533
		C39.093,14.642,35.336,11.269,30.699,11.269z M30.699,23.322c-2.547,0-4.61-2.063-4.61-4.607c0-2.544,2.063-4.607,4.61-4.607
		c2.547,0,4.611,2.063,4.611,4.607C35.311,21.259,33.246,23.322,30.699,23.322z"/>
	<polygon fill="#AF1F2E" points="36.609,44.669 36.609,47.443 4.083,47.443 4.083,44.669 1.391,44.669 1.391,47.443 1.391,49.89 
		4.083,49.89 36.609,49.89 39.3,49.89 39.3,47.443 39.3,44.669 	"/>
	<g>
		<rect x="17.576" y="29.079" fill="#AF1F2E" width="2.439" height="12.847"/>
		<polygon fill="#AF1F2E" points="24.949,29.079 22.509,29.079 22.509,41.926 30.021,41.926 30.021,39.479 24.949,39.479 		"/>
		<polygon fill="#AF1F2E" points="34.28,39.479 34.28,36.828 39.352,36.828 39.352,34.374 34.28,34.374 34.28,31.526 39.352,31.526 
			39.352,29.079 31.84,29.079 31.84,41.926 39.352,41.926 39.352,39.479 		"/>
		<polygon fill="#AF1F2E" points="8.249,36.001 3.928,29.079 1.416,29.079 1.416,41.926 3.856,41.926 3.856,33.593 8.249,40.711 
			12.642,33.593 12.642,41.926 15.081,41.926 15.081,29.079 12.569,29.079 		"/>
	</g>
</g>
<rect fill="none" width="40.709" height="51.655"/>
</svg>
